Normalized EMG Linear Envelopes
nRows=126
nColumns=4

endheader
time	 med_gas_r	  soleus_r	 tib_ant_r	
2.875	  0.006950	  0.015759	  0.003848	
2.9375	  0.006741	  0.014983	  0.003903	
3	  0.006697	  0.014559	  0.003953	
3.0625	  0.006830	  0.014679	  0.003981	
3.125	  0.006989	  0.015215	  0.003979	
3.1875	  0.006989	  0.015743	  0.003950	
3.25	  0.006772	  0.015818	  0.003887	
3.3125	  0.006444	  0.015261	  0.003790	
3.375	  0.006200	  0.014275	  0.003689	
3.4375	  0.006158	  0.013269	  0.003630	
3.5	  0.006287	  0.012547	  0.003634	
3.5625	  0.006479	  0.012202	  0.003715	
3.625	  0.006630	  0.012253	  0.003867	
3.6875	  0.006679	  0.012692	  0.004008	
3.75	  0.006630	  0.013414	  0.004020	
3.8125	  0.006546	  0.014214	  0.003905	
3.875	  0.006496	  0.014843	  0.003788	
3.9375	  0.006501	  0.015034	  0.003744	
4	  0.006531	  0.014647	  0.003742	
4.0625	  0.006542	  0.013879	  0.003752	
4.125	  0.006525	  0.013092	  0.003779	
4.1875	  0.006545	  0.012501	  0.003822	
4.25	  0.006656	  0.012144	  0.003846	
4.3125	  0.006770	  0.011965	  0.003824	
4.375	  0.006731	  0.011855	  0.003767	
4.4375	  0.006528	  0.011790	  0.003710	
4.5	  0.006296	  0.011899	  0.003684	
4.5625	  0.006140	  0.012264	  0.003717	
4.625	  0.006100	  0.012724	  0.003824	
4.6875	  0.006194	  0.013013	  0.003994	
4.75	  0.006362	  0.012988	  0.004175	
4.8125	  0.006435	  0.012550	  0.004264	
4.875	  0.006212	  0.011345	  0.004109	
4.9375	  0.005555	  0.008814	  0.003595	
5	  0.004530	  0.005039	  0.002878	
5.0625	  0.003680	  0.002224	  0.002671	
5.125	  0.004339	  0.005945	  0.004409	
5.1875	  0.008680	  0.025070	  0.009995	
5.25	  0.018843	  0.068115	  0.020602	
5.3125	  0.034827	  0.134192	  0.034656	
5.375	  0.052928	  0.206322	  0.047763	
5.4375	  0.067638	  0.261216	  0.056517	
5.5	  0.076051	  0.290294	  0.061798	
5.5625	  0.079732	  0.304863	  0.066943	
5.625	  0.081904	  0.317123	  0.073513	
5.6875	  0.083778	  0.324530	  0.079487	
5.75	  0.084493	  0.319098	  0.081786	
5.8125	  0.083540	  0.303348	  0.080394	
5.875	  0.081772	  0.287871	  0.078607	
5.9375	  0.081354	  0.279963	  0.080152	
6	  0.085336	  0.282158	  0.087142	
6.0625	  0.094685	  0.294662	  0.097837	
6.125	  0.105823	  0.312662	  0.106676	
6.1875	  0.114133	  0.327892	  0.110036	
6.25	  0.119842	  0.337554	  0.109972	
6.3125	  0.128075	  0.345969	  0.110268	
6.375	  0.142617	  0.357215	  0.112096	
6.4375	  0.161095	  0.371141	  0.114041	
6.5	  0.176556	  0.384891	  0.113887	
6.5625	  0.183484	  0.398187	  0.110863	
6.625	  0.183832	  0.415763	  0.106506	
6.6875	  0.185793	  0.438118	  0.102545	
6.75	  0.193483	  0.455780	  0.099325	
6.8125	  0.200877	  0.459717	  0.096812	
6.875	  0.199959	  0.448407	  0.095313	
6.9375	  0.191841	  0.423590	  0.094818	
7	  0.185932	  0.391425	  0.094428	
7.0625	  0.190128	  0.366330	  0.093074	
7.125	  0.204359	  0.362319	  0.091265	
7.1875	  0.221724	  0.381642	  0.091444	
7.25	  0.233945	  0.416109	  0.095477	
7.3125	  0.237459	  0.454642	  0.101967	
7.375	  0.235435	  0.487821	  0.107214	
7.4375	  0.233532	  0.508038	  0.108854	
7.5	  0.235026	  0.507499	  0.107369	
7.5625	  0.240702	  0.483462	  0.104784	
7.625	  0.250695	  0.447886	  0.103079	
7.6875	  0.264719	  0.422096	  0.102575	
7.75	  0.281443	  0.417637	  0.101652	
7.8125	  0.298532	  0.426555	  0.099056	
7.875	  0.313907	  0.431531	  0.095353	
7.9375	  0.326157	  0.423777	  0.091723	
8	  0.332337	  0.410099	  0.089103	
8.0625	  0.328684	  0.404077	  0.088690	
8.125	  0.317391	  0.413604	  0.091747	
8.1875	  0.309333	  0.436281	  0.098103	
8.25	  0.316398	  0.461329	  0.105276	
8.3125	  0.341909	  0.475782	  0.109979	
8.375	  0.377226	  0.476996	  0.110888	
8.4375	  0.405760	  0.477686	  0.109497	
8.5	  0.413254	  0.489386	  0.108180	
8.5625	  0.399560	  0.507389	  0.108523	
8.625	  0.380771	  0.518875	  0.111486	
8.6875	  0.373866	  0.517760	  0.116739	
8.75	  0.379372	  0.510077	  0.121250	
8.8125	  0.385388	  0.507613	  0.121278	
8.875	  0.385357	  0.514781	  0.116625	
8.9375	  0.384135	  0.525922	  0.110999	
9	  0.388135	  0.535387	  0.108395	
9.0625	  0.395546	  0.543520	  0.110652	
9.125	  0.397647	  0.552677	  0.117073	
9.1875	  0.388107	  0.560669	  0.125091	
9.25	  0.370295	  0.561225	  0.132440	
9.3125	  0.353410	  0.551025	  0.138329	
9.375	  0.341539	  0.531221	  0.142145	
9.4375	  0.331080	  0.504941	  0.143125	
9.5	  0.319101	  0.478942	  0.141317	
9.5625	  0.310259	  0.461222	  0.137352	
9.625	  0.311608	  0.454618	  0.132395	
9.6875	  0.321318	  0.458062	  0.128424	
9.75	  0.330561	  0.468236	  0.126308	
9.8125	  0.334638	  0.475296	  0.124285	
9.875	  0.332222	  0.466548	  0.120611	
9.9375	  0.319924	  0.439134	  0.116272	
10	  0.296466	  0.402925	  0.112822	
10.0625	  0.266061	  0.368596	  0.109281	
10.125	  0.233948	  0.337364	  0.102972	
10.1875	  0.201640	  0.302903	  0.091948	
10.25	  0.166469	  0.258509	  0.076102	
10.3125	  0.125685	  0.202048	  0.057401	
10.375	  0.082032	  0.138716	  0.039183	
10.4375	  0.043811	  0.080362	  0.024470	
10.5	  0.018268	  0.038652	  0.014576	
10.5625	  0.006323	  0.017225	  0.009000	
10.625	  0.003795	  0.011178	  0.006295	
10.6875	  0.005250	  0.012171	  0.004808	
